<?xml version="1.0"?><svg width="8267.725" height="8267.725" xmlns="http://www.w3.org/2000/svg">
 <title>the blue tick</title>
 <defs>
 </defs>
 <g>
  <title>Layer 1</title>
  <g id="Symbol-Rahmen">
   <path d="m691.814941,4424.259766c731.305176,313.610352 827.705078,357.490234 1567.785156,675.180176c40.47998,17.970215 72.399902,31.790039 101.489746,46.120117c50.760254,27.560059 77.339844,53.459961 127.280273,-15.280273c16.879883,-17.109863 46.269531,-32.859863 65.599609,-65.449707c1771.250488,-1641.560059 3104.17041,-2926.090088 4875.430176,-4567.664093c311.450195,-314.038589 957.140137,-82.314972 668.75,262.425018c-1819.040039,2115.068909 -3013.899902,3557.109192 -3898.310059,4727.138977c-378.149902,498.870117 -701.189941,948.439941 -991.489746,1378.669922c-190.680176,277.300293 -364.939941,546.580078 -526.529785,815.859863c-46.830078,81.5 -85.950195,138.830078 -146.800293,184.870117c-95.27002,67.850098 -199.810059,75.200195 -302.620117,18.470215c-38.549805,-25.290039 -76.039551,-57.030273 -113.859863,-103.760254c-22.689941,-28.029785 -45.509766,-64.330078 -68.740234,-99.849609l-553.399902,-911.480469l-623.115723,-1098.319824c-170.562988,-300.640137 -307.260254,-550.25 -571.625977,-1007.629883c-28.921387,-43.069824 -111.645996,-155.140137 -87.535156,-238.720215c20.748047,-95.459961 124.861816,-147.429688 234.972168,-102.709961c98.806641,41.680176 197.58252,84.97998 242.719727,102.129883l0,0z" id="svg_1" class="fil0"/>
  </g>
  <g id="Symbol">
   <path d="m431.484375,4459.244141c694.725586,299.697266 1260.06543,540.01709 1963.125977,843.621582c48.5,21.097656 97.639648,26.837891 146.549805,-15.666992c1682.650391,-1568.777344 3327.349609,-3107.248291 5010.009766,-4676.029846c220.550781,-198.264526 645.361328,-76.663391 509.089844,107.091675c-2981.109375,3425.958191 -4547.939453,5430.498718 -5497.55957,7013.408386c-86.320313,144.596191 -250.19043,136.414063 -339.060547,-2.272949c-209.349609,-331.408691 -525.429688,-851.254883 -534.05957,-864.290527c-673.509766,-1171.642578 -694.991211,-1220.396484 -1337.913086,-2339.408691c-30.34668,-54.852539 35.428711,-94.975586 79.819336,-66.452637l-0.001953,0z" fill="#0000ff" id="svg_2" class="fil1"/>
  </g>
 </g>
</svg>